#!OML:ASF X:\für Bonn\!DataBase\2005_08_12_Daniel\c3d\Daniel.ASF
:FULLY-SPECIFIED
:DEGREES
48
root -3.64377 10.8509 -2.70332 316.515 -80.2807 -339.552
lowerback 45.3678 -3.17659 -1.09592
upperback 4.50554 -5.99987 -3.24657
thorax -16.4624 -2.86733 0.0757132
lowerneck 4.57283 1.38552 -2.96242
upperneck -1.54907 1.72525 1.91225
head -1.2986 0.845841 1.0533
rclavicle -3.69739e-014 4.05521e-014
rhumerus 70.6487 -16.4038 -134.088
rradius 10.4923
rwrist 107.343
rhand -18.4114 15.7601
rfingers 7.12502
rthumb 7.87331 -14.0733
lclavicle -3.69739e-014 4.05521e-014
lhumerus 69.1998 1.35239 97.0872
lradius 7.14874
lwrist -71.6098
lhand -17.6559 3.02291
lfingers 7.12502
lthumb 8.60243 32.8277
rfemur -32.8039 -41.2531 -20.943
rtibia 122.187
rfoot -22.2179 37.9384
rtoes -4.28654
lfemur -48.7944 14.0994 -9.76117
ltibia 120.268
lfoot -22.9085 -29.7087
ltoes 3.6856
49
root -3.64428 10.6439 -2.70877 316.656 -80.2067 -340.201
lowerback 46.0014 -3.2466 -0.98941
upperback 4.58371 -6.06593 -3.2358
thorax -16.5629 -2.90356 0.0875684
lowerneck 4.80142 1.38375 -2.93151
upperneck -1.72702 1.71723 1.827
head -1.39346 0.842876 1.02091
rclavicle -4.96962e-016 -2.22639e-014
rhumerus 70.9358 -16.164 -134.075
rradius 10.4597
rwrist 107.26
rhand -18.2111 15.6816
rfingers 7.12502
rthumb 8.06661 -14.1444
lclavicle -4.96962e-016 -2.22639e-014
lhumerus 69.3979 1.4179 97.1751
lradius 7.20246
lwrist -71.6276
lhand -17.8018 2.99784
lfingers 7.12502
lthumb 8.46158 32.8083
rfemur -31.7218 -43.422 -24.2243
rtibia 124.103
rfoot -22.5765 39.7292
rtoes -4.2558
lfemur -49.8256 15.189 -9.08763
ltibia 122.246
lfoot -22.6098 -30.1618
ltoes 3.54915
50
root -3.64578 10.4358 -2.71446 316.829 -80.1393 -340.879
lowerback 46.6068 -3.31445 -0.892508
upperback 4.67506 -6.1302 -3.21437
thorax -16.6321 -2.93978 0.113946
lowerneck 4.93899 1.38077 -2.88019
upperneck -1.83918 1.71017 1.72214
head -1.45108 0.840877 0.978895
rclavicle 1.73937e-014 -3.97569e-015
rhumerus 71.4569 -16.0211 -134.65
rradius 10.3331
rwrist 107.792
rhand -18.081 15.6269
rfingers 7.12502
rthumb 8.19214 -14.1943
lclavicle 1.73937e-014 -3.97569e-015
lhumerus 69.6174 1.49613 97.2661
lradius 7.25569
lwrist -71.6499
lhand -17.9592 2.9919
lfingers 7.12502
lthumb 8.30972 32.8085
rfemur -30.1825 -45.7446 -28.1149
rtibia 126.01
rfoot -23.0562 41.6892
rtoes -4.17692
lfemur -50.8492 16.4123 -8.37092
ltibia 124.207
lfoot -22.4831 -30.5326
ltoes 3.21464
51
root -3.64833 10.2298 -2.72017 316.936 -80.0606 -341.503
lowerback 47.2182 -3.38885 -0.794141
upperback 4.75737 -6.20401 -3.20969
thorax -16.7126 -2.9798 0.126599
lowerneck 5.05415 1.38367 -2.83343
upperneck -1.89833 1.71144 1.64029
head -1.48849 0.842508 0.944693
rclavicle -3.19049e-014 1.82882e-014
rhumerus 71.948 -15.8911 -135.216
rradius 10.207
rwrist 108.247
rhand -17.9587 15.6031
rfingers 7.12502
rthumb 8.31021 -14.2134
lclavicle -3.19049e-014 1.82882e-014
lhumerus 69.8284 1.59338 97.3307
lradius 7.28531
lwrist -71.6655
lhand -18.0761 2.97945
lfingers 7.12502
lthumb 8.19691 32.8004
rfemur -27.9613 -48.1511 -32.8069
rtibia 127.872
rfoot -23.8341 43.8116
rtoes -4.15153
lfemur -51.8317 17.722 -7.63302
ltibia 126.132
lfoot -22.4089 -30.865
ltoes 2.77577
52
root -3.65116 10.0238 -2.7261 317.152 -79.9875 -342.243
lowerback 47.8268 -3.47094 -0.671428
upperback 4.83443 -6.27133 -3.19715
thorax -16.7954 -3.01804 0.132581
lowerneck 5.12928 1.37461 -2.7858
upperneck -1.94001 1.69759 1.55009
head -1.51282 0.836907 0.908236
rclavicle -1.36167e-014 1.39149e-014
rhumerus 72.3816 -15.7631 -135.705
rradius 10.1303
rwrist 108.641
rhand -17.8413 15.5661
rfingers 7.12502
rthumb 8.42349 -14.2459
lclavicle -1.36167e-014 1.39149e-014
lhumerus 70.0073 1.65925 97.4182
lradius 7.32957
lwrist -71.6537
lhand -18.1268 2.9266
lfingers 7.12502
lthumb 8.14798 32.7495
rfemur -24.9642 -50.5703 -38.4098
rtibia 129.71
rfoot -24.87 46.0704
rtoes -4.01072
lfemur -52.7921 19.1882 -6.77173
ltibia 128.044
lfoot -22.3274 -31.3006
ltoes 2.40731
53
root -3.6548 9.81839 -2.7316 317.296 -79.905 -342.912
lowerback 49.2839 -3.52732 -0.642843
upperback 3.86513 -6.35896 -3.05138
thorax -16.6612 -3.05454 0.15904
lowerneck 5.0754 1.36695 -2.72598
upperneck -1.8774 1.68957 1.4681
head -1.48101 0.833953 0.872371
rclavicle -9.64106e-015 5.1684e-015
rhumerus 72.7417 -15.5794 -135.943
rradius 10.0468
rwrist 108.812
rhand -17.7551 15.5503
rfingers 7.12502
rthumb 8.50664 -14.2583
lclavicle -9.64106e-015 5.1684e-015
lhumerus 70.2285 1.72956 97.4947
lradius 7.31025
lwrist -71.607
lhand -18.2035 2.90108
lfingers 7.12502
lthumb 8.07391 32.7269
rfemur -21.025 -52.8931 -45.1541
rtibia 131.533
rfoot -26.3607 48.4321
rtoes -4.04586
lfemur -53.7298 20.763 -5.85501
ltibia 129.923
lfoot -22.2092 -31.8161
ltoes 2.02189
54
root -3.65889 9.61334 -2.7374 317.416 -79.8164 -343.566
lowerback 49.877 -3.60435 -0.542779
upperback 3.93249 -6.42826 -3.03669
thorax -16.6863 -3.09518 0.173092
lowerneck 5.00869 1.365 -2.69152
upperneck -1.82734 1.68786 1.38078
head -1.45144 0.834552 0.839128
rclavicle 3.20043e-014 3.4191e-014
rhumerus 72.9583 -15.3164 -135.751
rradius 10.0241
rwrist 108.533
rhand -17.6025 15.5142
rfingers 7.12502
rthumb 8.65394 -14.2885
lclavicle 3.20043e-014 3.4191e-014
lhumerus 70.4834 1.79803 97.5821
lradius 7.21843
lwrist -71.4944
lhand -18.2807 2.86433
lfingers 7.12502
lthumb 7.99938 32.693
rfemur -15.9776 -54.9389 -53.1892
rtibia 133.321
rfoot -28.1232 50.9685
rtoes -3.9004
lfemur -54.622 22.4655 -4.82162
ltibia 131.764
lfoot -21.9795 -32.4966
ltoes 1.84445
55
root -3.66347 9.40621 -2.74318 317.55 -79.7301 -344.233
lowerback 50.455 -3.68944 -0.438714
upperback 3.99099 -6.50452 -3.0295
thorax -16.7169 -3.13846 0.180523
lowerneck 4.94305 1.35567 -2.6596
upperneck -1.77953 1.67711 1.32197
head -1.42309 0.83007 0.815609
rclavicle 4.29375e-014 -1.74931e-014
rhumerus 73.0506 -15.0778 -135.435
rradius 10.0491
rwrist 108.136
rhand -17.4823 15.4809
rfingers 7.12502
rthumb 8.76991 -14.3169
lclavicle 4.29375e-014 -1.74931e-014
lhumerus 70.6575 1.87313 97.6568
lradius 7.17555
lwrist -71.351
lhand -18.3573 2.78468
lfingers 7.12502
lthumb 7.92552 32.6161
rfemur -9.92445 -56.5255 -62.4605
rtibia 135.119
rfoot -30.4109 53.5343
rtoes -3.68264
lfemur -55.4859 24.4343 -3.6335
ltibia 133.616
lfoot -21.8663 -33.2783
ltoes 1.48378
56
root -3.66904 9.19938 -2.74915 317.715 -79.6602 -344.931
lowerback 50.9823 -3.76966 -0.330827
upperback 4.07334 -6.57011 -3.01816
thorax -16.706 -3.17971 0.183649
lowerneck 4.84467 1.3557 -2.62288
upperneck -1.73292 1.6798 1.25229
head -1.38951 0.832577 0.78763
rclavicle 3.8763e-015 -7.15625e-015
rhumerus 73.0238 -14.7994 -134.782
rradius 10.1271
rwrist 107.411
rhand -17.3376 15.4601
rfingers 7.12502
rthumb 8.90956 -14.3317
lclavicle 3.8763e-015 -7.15625e-015
lhumerus 70.797 1.9683 97.7252
lradius 7.19207
lwrist -71.1437
lhand -18.3875 2.62782
lfingers 7.12502
lthumb 7.89636 32.4603
rfemur -3.15082 -57.4241 -72.5876
rtibia 136.881
rfoot -33.092 56.1036
rtoes -3.42612
lfemur -56.2726 26.6337 -2.25219
ltibia 135.421
lfoot -21.6793 -34.2496
ltoes 1.27036
57
root -3.67395 9.00196 -2.75425 317.782 -79.5729 -345.518
lowerback 51.5064 -3.84328 -0.249435
upperback 4.14555 -6.63909 -2.99878
thorax -16.7002 -3.22038 0.210017
lowerneck 4.80452 1.35076 -2.64482
upperneck -1.76181 1.67175 1.20401
head -1.39114 0.829986 0.77658
rclavicle -3.58806e-014 -2.78299e-015
rhumerus 72.894 -14.497 -133.856
rradius 10.2098
rwrist 106.444
rhand -17.2173 15.4591
rfingers 7.12502
rthumb 9.02571 -14.3278
lclavicle -3.58806e-014 -2.78299e-015
lhumerus 70.8763 2.07457 97.8148
lradius 7.28988
lwrist -71.0272
lhand -18.3838 2.46701
lfingers 7.12502
lthumb 7.89991 32.2994
rfemur 3.36747 -57.5423 -82.4544
rtibia 138.552
rfoot -36.0811 58.3492
rtoes -3.07305
lfemur -56.9561 28.8669 -0.81852
ltibia 137.115
lfoot -21.4413 -35.3218
ltoes 1.115
58
root -3.67957 8.81135 -2.7598 317.918 -79.494 -346.194
lowerback 52.0492 -3.93132 -0.126949
upperback 4.2122 -6.7071 -3.00472
thorax -16.7073 -3.2625 0.189294
lowerneck 4.81989 1.34205 -2.63304
upperneck -1.83722 1.66037 1.18495
head -1.4173 0.825031 0.768896
rclavicle 3.33958e-014 5.1684e-015
rhumerus 72.8507 -14.3062 -133.257
rradius 10.2791
rwrist 105.741
rhand -17.1306 15.4436
rfingers 7.12502
rthumb 9.10935 -14.3397
lclavicle 3.33958e-014 5.1684e-015
lhumerus 70.9311 2.13026 97.8798
lradius 7.39636
lwrist -70.9455
lhand -18.3108 2.37257
lfingers 7.12502
lthumb 7.97038 32.2023
rfemur 9.13161 -56.9928 -91.4891
rtibia 140.134
rfoot -39.2869 60.2881
rtoes -2.7818
lfemur -57.4705 31.2213 0.831379
ltibia 138.704
lfoot -21.0464 -36.6085
ltoes 1.17668
59
root -3.68556 8.62052 -2.76495 317.977 -79.4204 -346.788
lowerback 52.557 -4.01188 -0.0330128
upperback 4.28782 -6.7769 -2.99235
thorax -16.6901 -3.30497 0.202113
lowerneck 4.82914 1.34944 -2.69827
upperneck -1.91502 1.6662 1.17953
head -1.44472 0.829048 0.778199
rclavicle -6.91771e-014 -3.29983e-014
rhumerus 72.8277 -14.1004 -132.708
rradius 10.29
rwrist 105.148
rhand -17.0742 15.4471
rfingers 7.12502
rthumb 9.16374 -14.3338
lclavicle -6.91771e-014 -3.29983e-014
lhumerus 70.9841 2.24344 97.959
lradius 7.52942
lwrist -70.9194
lhand -18.1883 2.22011
lfingers 7.12502
lthumb 8.08857 32.0453
rfemur 14.1001 -55.9281 -99.8442
rtibia 141.702
rfoot -42.5687 62.0972
rtoes -2.37747
lfemur -57.8746 33.7663 2.7162
ltibia 140.26
lfoot -20.5466 -38.1536
ltoes 1.30874
